{"title":"Oasis - Live Manchester 2005 HD 720p  Full Concert","uid":10401965,"size":1678798609,"categoryP":"video","categoryS":"hd___tv_shows","magnet":"?xt=urn:btih:fda14d202a3dc98a0c06e3a861123b77494beb5c&amp;dn=Oasis+-+Live+Manchester+2005+HD+720p++Full+Concert&amp;tr=udp%3A%2F%2Ftracker.openbittorrent.com%3A80&amp;tr=udp%3A%2F%2Fopen.demonii.com%3A1337&amp;tr=udp%3A%2F%2Ftracker.coppersurfer.tk%3A6969&amp;tr=udp%3A%2F%2Fexodus.desync.com%3A6969","seeders":5,"leechers":0,"uploader":"JiMCRi","files":-1,"time":1403381324,"description":"Thumbnail: http://bayimg.com/AaOMNAAfn\n\n\nPosted by: JiMCRi\n\n\nOasis - Live Manchester 2005 Full Concert\n\n\nFile size                     : 1.56 GiB\nDuration                      : 1h 14mn\n\n\nVideo\n\nFormat                        : AVC\nFormat/Info                   : Advanced Video Codec\nFormat profile                : &lt;a class=&quot;__cf_email__&quot; href=&quot;/cdn-cgi/l/email-protection&quot; data-cfemail=&quot;7d35141a153d314e534c&quot;&gt;[email&amp;#160;protected]&lt;/a&gt;&lt;script cf-hash='f9e31' type=&quot;text/javascript&quot;&gt;\n/* &lt;![CDATA[ */!function(){try{var t=&quot;currentScript&quot;in document?document.currentScript:function(){for(var t=document.getElementsByTagName(&quot;script&quot;),e=t.length;e--;)if(t[e].getAttribute(&quot;cf-hash&quot;))return t[e]}();if(t&amp;&amp;t.previousSibling){var e,r,n,i,c=t.previousSibling,a=c.getAttribute(&quot;data-cfemail&quot;);if(a){for(e=&quot;&quot;,r=parseInt(a.substr(0,2),16),n=2;a.length-n;n+=2)i=parseInt(a.substr(n,2),16)^r,e+=String.fromCharCode(i);e=document.createTextNode(e),c.parentNode.replaceChild(e,c)}}}catch(u){}}();/* ]]&gt; */&lt;/script&gt;\nCodec ID                      : avc1\nCodec ID/Info                 : Advanced Video Coding\nDuration                      : 1h 14mn\nBit rate                      : 2 807 Kbps\nMaximum bit rate              : 7 681 Kbps\nWidth                         : 1 280 pixels\nHeight                        : 720 pixels\nDisplay aspect ratio          : 16:9\nFrame rate                    : 29.970 fps\nStream size                   : 1.46 GiB (94%)\n\n\nAudio\n\nFormat                        : AAC\nFormat/Info                   : Advanced Audio Codec\nDuration                      : 1h 14mn\nBit rate mode                 : Variable\nBit rate                      : 192 Kbps\nMaximum bit rate              : 201 Kbps\nChannel(s)                    : 2 channels\nSampling rate                 : 44.1 KHz\nCompression mode              : Lossy\nStream size                   : 102 MiB (6%)\n\n\nSetlist:\n\n01. Fuckin in the Bushes\n02. Turn Up the Sun\n03. Lyla\n04. Cigarettes &amp; Alcohol\n05. The Importance of Being Idle\n06. Little by Little\n07. A Bell Will ring\n08. Acquiesce\n09. Songbird\n10. Live Forever\n11. Mucky Fingers\n12. Wonderwall\n13. Rock N Roll Star\n14. The Meaning of Soul\n15. Don't Look Back in Anger\n16. My Generation","torrent":{"xt":"urn:btih:fda14d202a3dc98a0c06e3a861123b77494beb5c","amp;dn":"Oasis+-+Live+Manchester+2005+HD+720p++Full+Concert","amp;tr":["udp%3A%2F%2Ftracker.openbittorrent.com%3A80","udp%3A%2F%2Fopen.demonii.com%3A1337","udp%3A%2F%2Ftracker.coppersurfer.tk%3A6969","udp%3A%2F%2Fexodus.desync.com%3A6969"],"infoHash":"fda14d202a3dc98a0c06e3a861123b77494beb5c","infoHashBuffer":{"type":"Buffer","data":[253,161,77,32,42,61,201,138,12,6,227,168,97,18,59,119,73,75,235,92]},"announce":[],"urlList":[]}}